<svg width="160" height="162" viewBox="0 0 160 162" fill="none" xmlns="http://www.w3.org/2000/svg">
<path d="M47.5938 6.41224L63.6305 16.1759L73.3247 2.74912e-07L85.3522 14.4915L99.7238 2.36975L106.439 20.0187L123.93 13.2647L124.605 32.1585L143.321 31.5041L137.882 49.5954L155.795 55.1116L144.832 70.4399L160 81.5289L144.701 92.433L155.481 107.893L137.504 113.192L142.727 131.348L124.02 130.466L123.12 149.35L105.71 142.385L98.7855 159.951L84.5594 147.656L72.3601 162L62.8593 145.708L46.7075 155.276L42.9616 136.752L24.6074 140.507L27.0223 121.759L8.45476 119.295L16.7688 102.354L-3.5219e-07 93.9363L13.3122 80.6388L0.159303 67.1806L17.0271 58.9673L8.91541 41.9268L27.5109 39.6878L25.3194 20.9116L43.6276 24.8894L47.5938 6.41224Z" fill="#1BB2DE"/>
</svg>
