<svg width="112" height="102" viewBox="0 0 112 102" fill="none" xmlns="http://www.w3.org/2000/svg">
<path d="M72.5 64V63.5H72H36H1C0.723858 63.5 0.5 63.2761 0.5 63V1C0.5 0.723858 0.723858 0.5 1 0.5H36H72H111C111.276 0.5 111.5 0.723858 111.5 1V101C111.5 101.276 111.276 101.5 111 101.5H73C72.7239 101.5 72.5 101.276 72.5 101V64Z" fill="white" stroke="black"/>
<rect x="75.5" y="3.5" width="33" height="95" rx="0.5" stroke="black"/>
<rect x="39.5" y="3.5" width="33" height="57" rx="0.5" stroke="black"/>
<rect x="3.5" y="3.5" width="33" height="57" rx="0.5" stroke="black"/>
<path d="M101 51L89 63M101 55.4211L94.6842 61.7368" stroke="black" stroke-linecap="round"/>
<path d="M62 29L50 41M62 33.4211L55.6842 39.7368" stroke="black" stroke-linecap="round"/>
<path d="M26 17L14 29M26 21.4211L19.6842 27.7368" stroke="black" stroke-linecap="round"/>
</svg>
