<svg width="102" height="40" viewBox="0 0 102 40" fill="none" xmlns="http://www.w3.org/2000/svg">
<path fill-rule="evenodd" clip-rule="evenodd" d="M18.421 2.96297H0V40H18.421V36.2963H3.68419V6.66667H18.421V2.96297Z" fill="#F0CE76"/>
<path fill-rule="evenodd" clip-rule="evenodd" d="M18.421 2.96297H36.8419V40H18.421V36.2963H33.1577V6.66667H18.421V2.96297Z" fill="#F0CE76"/>
<path d="M3.68419 6.66666H18.421V36.2963H3.68419V6.66666Z" fill="#F0CE76"/>
<path d="M5.89471 8.88889H17.3157V20.3704H5.89471V8.88889Z" fill="#F8F8F8"/>
<path d="M5.89471 22.5926H17.3157V34.074H5.89471V22.5926Z" fill="#F8F8F8"/>
<path d="M33.1577 6.66666H18.421V36.2963H33.1577V6.66666Z" fill="#F0CE76"/>
<path d="M30.9472 8.88889H19.5262V20.3704H30.9472V8.88889Z" fill="#F8F8F8"/>
<path d="M30.9472 22.5926H19.5262V34.074H30.9472V22.5926Z" fill="#F8F8F8"/>
<path fill-rule="evenodd" clip-rule="evenodd" d="M26.4525 0H27.5577C27.5577 3.47735 30.3618 6.2963 33.8208 6.2963V7.40741V8.51852C30.3618 8.51852 27.5577 11.3375 27.5577 14.8148H26.4525V7.40741V0Z" fill="#00D9E0"/>
<path fill-rule="evenodd" clip-rule="evenodd" d="M26.4525 0H25.3472C25.3472 3.47735 22.5431 6.2963 19.0841 6.2963V7.40741V8.51852C22.5431 8.51852 25.3472 11.3375 25.3472 14.8148H26.4525V7.40741V0Z" fill="#55FBFF"/>
<path fill-rule="evenodd" clip-rule="evenodd" d="M32.4209 12.5185H33.5262C33.5262 15.9959 36.3302 18.8148 39.7893 18.8148V19.9259V21.037C36.3302 21.037 33.5262 23.856 33.5262 27.3333H32.4209V19.9259V12.5185Z" fill="#00D9E0"/>
<path fill-rule="evenodd" clip-rule="evenodd" d="M32.4209 12.5185H31.3156C31.3156 15.9959 28.5116 18.8148 25.0525 18.8148V19.9259V21.037C28.5116 21.037 31.3156 23.856 31.3156 27.3333H32.4209V19.9259V12.5185Z" fill="#55FBFF"/>
<path d="M51.966 18.2338H46.7743L45.8676 21.1852H41.82L47.5838 5.38657H51.1456L56.9526 21.1852H52.8834L51.966 18.2338ZM47.6809 15.2933H51.0593L49.3647 9.81366L47.6809 15.2933Z" fill="white"/>
<path d="M61.7855 15.8249V21.1852H57.997V5.38657H64.268C65.4697 5.38657 66.531 5.61082 67.4521 6.05932C68.3803 6.50058 69.0963 7.13354 69.6 7.95819C70.1109 8.77561 70.3663 9.70515 70.3663 10.7468C70.3663 12.2876 69.8159 13.521 68.7149 14.4469C67.6212 15.3656 66.1173 15.8249 64.2032 15.8249H61.7855ZM61.7855 12.8844H64.268C65.002 12.8844 65.5596 12.6999 65.941 12.331C66.3296 11.9621 66.5238 11.4413 66.5238 10.7685C66.5238 10.0307 66.326 9.44112 65.9302 8.99986C65.5344 8.55859 64.9948 8.33435 64.3112 8.32711H61.7855V12.8844Z" fill="white"/>
<path d="M84.622 8.32711H79.9052V21.1852H76.1167V8.32711H71.4863V5.38657H84.622V8.32711Z" fill="white"/>
<path d="M56.3481 31.241C56.3481 32.7818 56.0639 34.1454 55.4954 35.3317C54.927 36.5181 54.1175 37.4332 53.0669 38.077C52.0235 38.7135 50.8326 39.0318 49.4942 39.0318C48.1558 39.0318 46.9686 38.7244 45.9324 38.1095C44.8962 37.4874 44.0867 36.6013 43.5038 35.4511C42.9282 34.3009 42.626 32.9808 42.5972 31.4906V30.6008C42.5972 29.0528 42.8778 27.6892 43.4391 26.5101C44.0075 25.3238 44.817 24.4087 45.8676 23.7649C46.9254 23.1211 48.1271 22.7992 49.4727 22.7992C50.8039 22.7992 51.9911 23.1175 53.0345 23.7541C54.0779 24.3906 54.8874 25.2985 55.4631 26.4776C56.0459 27.6495 56.3409 28.9949 56.3481 30.514V31.241ZM52.4948 30.5791C52.4948 29.0094 52.2322 27.8194 51.7069 27.0093C51.1888 26.1918 50.4441 25.7831 49.4727 25.7831C47.573 25.7831 46.5692 27.2154 46.4613 30.08L46.4505 31.241C46.4505 32.7891 46.7059 33.979 47.2168 34.8109C47.7277 35.6428 48.4868 36.0587 49.4942 36.0587C50.4513 36.0587 51.1888 35.65 51.7069 34.8326C52.225 34.0152 52.4876 32.8397 52.4948 31.3061V30.5791Z" fill="white"/>
<path d="M63.7499 32.5648H61.9582V38.8148H58.1696V23.0162H61.9582V29.1251H63.4153L66.4375 23.0162H71.0247L66.7073 30.3079L71.5644 38.8148H67.0851L63.7499 32.5648Z" fill="white"/>
<path d="M85.5287 38.8148H81.7617V32.2176H76.1815V38.8148H72.3929V23.0162H76.1815V29.2879H81.7617V23.0162H85.5287V38.8148Z" fill="white"/>
<path d="M96.9456 35.8634H91.7539L90.8473 38.8148H86.7997L92.5635 23.0162H96.1253L101.932 38.8148H97.8631L96.9456 35.8634ZM92.6606 32.9229H96.039L94.3444 27.4433L92.6606 32.9229Z" fill="white"/>
</svg>
