<svg width="304" height="134" viewBox="0 0 304 134" fill="none" xmlns="http://www.w3.org/2000/svg">
<rect width="304" height="134" fill="white"/>
<path d="M10.1333 46.6968H50.6666V123.848H10.1333V46.6968Z" fill="url(#paint0_linear)" fill-opacity="0.71"/>
<path d="M60.8 46.6968H101.333V123.848H60.8V46.6968Z" fill="url(#paint1_linear)" fill-opacity="0.71"/>
<rect x="0.924242" y="37.4697" width="109.618" height="95.606" rx="0.924242" stroke="#C4C4C4" stroke-width="1.84848"/>
<path d="M202.666 10.1516H243.199V87.3031H202.666V10.1516Z" fill="url(#paint2_linear)" fill-opacity="0.71"/>
<path d="M253.333 10.1516H293.866V87.3031H253.333V10.1516Z" fill="url(#paint3_linear)" fill-opacity="0.71"/>
<rect x="193.457" y="0.924242" width="109.618" height="95.606" rx="0.924242" stroke="#C4C4C4" stroke-width="1.84848"/>
<path d="M117.546 42.6359L145.919 28.4238V103.545L117.546 117.757V42.6359Z" fill="#C4C4C4"/>
<path d="M117.546 42.6359L145.919 28.4238V103.545L117.546 117.757V42.6359Z" fill="url(#paint4_linear)" fill-opacity="0.71"/>
<path d="M158.079 24.3635L186.452 10.1514V85.2726L158.079 99.4847V24.3635Z" fill="#C4C4C4"/>
<path d="M158.079 24.3635L186.452 10.1514V85.2726L158.079 99.4847V24.3635Z" fill="url(#paint5_linear)" fill-opacity="0.71"/>
<path fill-rule="evenodd" clip-rule="evenodd" d="M149.973 21.3998L113.493 37.6791L113.493 128.843L149.973 112.563L149.973 21.3998ZM112.669 35.8245C111.938 36.1507 111.467 36.8774 111.467 37.6791V128.843C111.467 130.313 112.978 131.295 114.318 130.697L150.798 114.418C151.529 114.092 152 113.365 152 112.563V21.3998C152 19.9298 150.489 18.947 149.149 19.5452L112.669 35.8245Z" fill="#C4C4C4"/>
<path fill-rule="evenodd" clip-rule="evenodd" d="M190.506 3.12732L154.026 19.4067L154.026 110.57L190.506 94.2909L190.506 3.12732ZM153.202 17.552C152.471 17.8783 152 18.6049 152 19.4067V110.57C152 112.04 153.511 113.023 154.851 112.425L191.331 96.1455C192.062 95.8193 192.533 95.0926 192.533 94.2909V3.12732C192.533 1.65734 191.022 0.674554 189.682 1.2727L153.202 17.552Z" fill="#C4C4C4"/>
<defs>
<linearGradient id="paint0_linear" x1="10.1333" y1="123.848" x2="71.9219" y2="72.0529" gradientUnits="userSpaceOnUse">
<stop offset="0.545214" stop-color="#1BB2DE"/>
<stop offset="1" stop-color="#1BB2DE" stop-opacity="0.4"/>
</linearGradient>
<linearGradient id="paint1_linear" x1="60.8" y1="123.848" x2="122.589" y2="72.0529" gradientUnits="userSpaceOnUse">
<stop offset="0.545214" stop-color="#1BB2DE"/>
<stop offset="1" stop-color="#1BB2DE" stop-opacity="0.4"/>
</linearGradient>
<linearGradient id="paint2_linear" x1="202.666" y1="87.3031" x2="264.455" y2="35.5077" gradientUnits="userSpaceOnUse">
<stop offset="0.545214" stop-color="#1BB2DE"/>
<stop offset="1" stop-color="#1BB2DE" stop-opacity="0.4"/>
</linearGradient>
<linearGradient id="paint3_linear" x1="253.333" y1="87.3031" x2="315.121" y2="35.5077" gradientUnits="userSpaceOnUse">
<stop offset="0.545214" stop-color="#1BB2DE"/>
<stop offset="1" stop-color="#1BB2DE" stop-opacity="0.4"/>
</linearGradient>
<linearGradient id="paint4_linear" x1="117.546" y1="117.757" x2="176.142" y2="88.0622" gradientUnits="userSpaceOnUse">
<stop offset="0.545214" stop-color="#1BB2DE"/>
<stop offset="1" stop-color="#1BB2DE" stop-opacity="0.4"/>
</linearGradient>
<linearGradient id="paint5_linear" x1="158.079" y1="99.4847" x2="216.675" y2="69.7897" gradientUnits="userSpaceOnUse">
<stop offset="0.545214" stop-color="#1BB2DE"/>
<stop offset="1" stop-color="#1BB2DE" stop-opacity="0.4"/>
</linearGradient>
</defs>
</svg>
